<svg viewBox="0 0 374 149" fill="none" xmlns="http://www.w3.org/2000/svg">
<path d="M0 146.029V3.01791H57.8001C59.1905 3.01791 60.9114 3.0676 62.9645 3.16697C65.0159 3.26634 66.9697 3.48206 68.8239 3.81255C76.769 5.07091 83.4057 7.78506 88.7361 11.9564C94.065 16.1272 98.0544 21.391 100.703 27.7471C103.351 34.1028 104.676 41.1214 104.676 48.8011C104.676 60.1899 101.762 70.0048 95.9363 78.2476C90.1095 86.4909 81.3699 91.6393 69.7177 93.6909L61.276 94.684H20.7563V146.029L0 146.029ZM20.7563 75.0202H57.0058C58.3293 75.0202 59.802 74.955 61.4251 74.8214C63.0466 74.6896 64.5861 74.4585 66.0433 74.1261C70.2795 73.133 73.6904 71.2957 76.2723 68.6143C78.8545 65.933 80.7073 62.8387 81.834 59.3288C82.959 55.8199 83.5223 52.3116 83.5223 48.8013C83.5223 45.2929 82.959 41.8001 81.834 38.324C80.7073 34.8479 78.8545 31.769 76.2723 29.0877C73.6904 26.4064 70.2795 24.569 66.0433 23.576C64.5861 23.1789 63.0466 22.9149 61.4251 22.7813C59.802 22.6495 58.3293 22.5829 57.0058 22.5829H20.7563V75.0202ZM83.6215 146.029L55.4166 87.8314L76.3717 82.4687L107.357 146.029L83.6215 146.029Z" fill="#6C25F9"/>
<path d="M159.325 149C148.664 149 139.313 146.666 131.269 141.998C123.224 137.33 116.968 130.81 112.498 122.434C108.029 114.059 105.795 104.343 105.795 93.2849C105.795 81.5661 107.995 71.4038 112.399 62.7958C116.802 54.1901 122.942 47.5357 130.822 42.8342C138.7 38.134 147.869 35.7827 158.332 35.7827C169.256 35.7827 178.557 38.3155 186.239 43.3804C193.918 48.4453 199.661 55.6454 203.469 64.9811C207.276 74.3163 208.783 85.4069 207.988 98.251H187.232V90.703C187.098 78.2561 184.732 69.0526 180.131 63.094C175.528 57.1354 168.527 54.156 159.126 54.156C148.731 54.156 140.918 57.4332 135.688 63.9877C130.457 70.5427 127.842 80.0116 127.842 92.3914C127.842 104.177 130.457 113.297 135.688 119.752C140.918 126.207 148.465 129.435 158.332 129.435C164.819 129.435 170.431 127.962 175.165 125.016C179.898 122.07 183.59 117.85 186.239 112.354L206.598 118.809C202.426 128.41 196.103 135.841 187.629 141.105C179.153 146.368 169.718 149 159.325 149ZM121.089 98.2508V82.0624H197.659V98.2508H121.089Z" fill="#6C25F9"/>
<path d="M270.34 149C259.68 149 250.329 146.666 242.284 141.998C234.24 137.33 227.983 130.81 223.514 122.434C219.045 114.059 216.811 104.343 216.811 93.2849C216.811 81.5661 219.011 71.4038 223.415 62.7958C227.817 54.1901 233.957 47.5357 241.837 42.8342C249.716 38.134 258.885 35.7827 269.347 35.7827C280.272 35.7827 289.573 38.3155 297.254 43.3804C304.934 48.4453 310.677 55.6454 314.485 64.9811C318.291 74.3163 319.798 85.4069 319.004 98.251H298.247V90.703C298.114 78.2561 295.747 69.0526 291.146 63.094C286.544 57.1354 279.542 54.156 270.142 54.156C259.746 54.156 251.933 57.4332 246.704 63.9877C241.473 70.5427 238.858 80.0116 238.858 92.3914C238.858 104.177 241.473 113.297 246.704 119.752C251.933 126.207 259.481 129.435 269.347 129.435C275.835 129.435 281.446 127.962 286.181 125.016C290.914 122.07 294.605 117.85 297.254 112.354L317.613 118.809C313.442 128.41 307.119 135.841 298.645 141.105C290.169 146.368 280.734 149 270.34 149ZM232.105 98.2508V82.0624H308.675V98.2508H232.105Z" fill="#6C25F9"/>
<path d="M326.748 145.99V0H347.504V145.99H326.748Z" fill="#6C25F9"/>
<path d="M363.66 20.6536C362.238 20.6536 360.902 20.3862 359.653 19.8525C358.404 19.3182 357.307 18.5771 356.364 17.6293C355.42 16.6814 354.681 15.5828 354.147 14.3332C353.613 13.0843 353.346 11.7489 353.346 10.3268C353.346 8.89691 353.613 7.55905 354.147 6.31377C354.681 5.06907 355.42 3.97276 356.364 3.02435C357.307 2.0771 358.404 1.33604 359.653 0.801756C360.902 0.267473 362.238 0 363.66 0C365.098 0 366.44 0.269874 367.686 0.807801C368.931 1.34689 370.025 2.08737 370.968 3.03097C371.912 3.97458 372.651 5.06907 373.185 6.31377C373.719 7.55913 373.986 8.89699 373.986 10.3268C373.986 11.7488 373.719 13.0843 373.185 14.3332C372.651 15.5827 371.912 16.679 370.968 17.6227C370.025 18.5663 368.931 19.3073 367.686 19.8458C366.44 20.3843 365.098 20.6536 363.66 20.6536ZM363.672 18.0818C364.741 18.0818 365.742 17.8811 366.677 17.4808C367.612 17.0799 368.435 16.5239 369.146 15.8135C369.857 15.1025 370.413 14.2773 370.813 13.3385C371.214 12.3991 371.414 11.3912 371.414 10.3142C371.414 9.24554 371.214 8.24429 370.813 7.30905C370.413 6.37447 369.857 5.55102 369.146 4.84068C368.435 4.12968 367.612 3.5737 366.677 3.1734C365.742 2.77253 364.741 2.57238 363.672 2.57238C362.595 2.57238 361.587 2.77253 360.648 3.1734C359.709 3.5737 358.884 4.1296 358.173 4.84068C357.462 5.5511 356.907 6.37447 356.506 7.30905C356.105 8.24421 355.905 9.24554 355.905 10.3142C355.905 11.3912 356.105 12.3991 356.506 13.3385C356.906 14.2773 357.462 15.1025 358.173 15.8135C358.884 16.5239 359.709 17.0799 360.648 17.4808C361.587 17.8811 362.595 18.0818 363.672 18.0818ZM363.841 15.8196C363.005 15.8196 362.277 15.6819 361.656 15.4061C361.036 15.1309 360.484 14.6999 360.002 14.1139C359.554 13.5453 359.237 12.9401 359.052 12.2982C358.867 11.6563 358.774 10.9945 358.774 10.3142C358.783 9.59897 358.884 8.92283 359.078 8.28512C359.272 7.64741 359.58 7.06567 360.002 6.54033C360.476 5.96274 361.031 5.5318 361.669 5.24752C362.307 4.96324 363.065 4.82081 363.944 4.82081C364.426 4.82081 364.87 4.86826 365.275 4.96324C365.68 5.05822 366.093 5.23907 366.516 5.50597C366.972 5.77344 367.367 6.12198 367.698 6.55292C368.03 6.98386 368.265 7.48328 368.403 8.05185L366.296 8.63366C366.21 8.38424 366.089 8.14683 365.934 7.92266C365.779 7.69908 365.585 7.49653 365.353 7.31559C365.146 7.13465 364.911 7.00547 364.648 6.92796C364.385 6.85045 364.112 6.81137 363.828 6.81137C363.388 6.81137 362.989 6.89972 362.632 7.07644C362.275 7.25315 361.967 7.50498 361.708 7.83257C361.449 8.16016 361.273 8.54357 361.178 8.98295C361.083 9.42233 361.036 9.86164 361.036 10.301C361.036 10.7662 361.09 11.2146 361.197 11.6455C361.305 12.0764 361.475 12.4593 361.708 12.7952C361.949 13.1228 362.251 13.3728 362.613 13.5453C362.974 13.7178 363.388 13.8038 363.853 13.8038C364.491 13.8038 365.008 13.6487 365.404 13.3385C365.611 13.166 365.779 12.981 365.908 12.7826C366.038 12.5841 366.154 12.3606 366.257 12.1106L368.403 12.6017C368.239 13.1011 368.013 13.5514 367.724 13.9522C367.435 14.3531 367.106 14.6909 366.736 14.9667C366.348 15.2426 365.925 15.4536 365.469 15.6002C365.012 15.7469 364.469 15.8196 363.841 15.8196Z" fill="#6C25F9"/>
</svg>
